<?xml version="1.0" standalone="no"?>
<!DOCTYPE svg PUBLIC "-//W3C//DTD SVG 20010904//EN"
 "http://www.w3.org/TR/2001/REC-SVG-20010904/DTD/svg10.dtd">
<svg version="1.0" xmlns="http://www.w3.org/2000/svg"
 width="960.000000pt" height="960.000000pt" viewBox="0 0 960.000000 960.000000"
 preserveAspectRatio="xMidYMid meet">
<metadata>
Created by potrace 1.11, written by Peter Selinger 2001-2013
</metadata>
<g transform="translate(0.000000,960.000000) scale(0.100000,-0.100000)"
fill="#000000" stroke="none">
<path d="M5 9588 c-3 -7 -4 -2166 -3 -4798 l3 -4785 4795 0 4795 0 0 4795 0
4795 -4793 3 c-3829 2 -4794 0 -4797 -10z m1637 -4321 c57 -35 149 -92 205
-127 l102 -63 -52 -28 c-28 -16 -92 -50 -142 -75 -49 -25 -94 -49 -100 -54 -5
-4 -40 -24 -78 -44 l-67 -36 5 143 c8 205 16 347 21 347 2 0 50 -29 106 -63z
m6409 -114 l24 -28 -30 25 c-16 14 -32 26 -34 28 -2 1 0 2 6 2 5 0 20 -12 34
-27z m-153 -12 c-13 -15 -25 -27 -27 -25 -4 4 39 54 47 54 2 0 -7 -13 -20 -29z
m116 -17 c19 -7 21 -51 4 -56 -10 -4 -10 -10 -1 -31 11 -23 10 -27 -3 -27 -9
0 -18 9 -21 20 -3 12 -14 20 -25 20 -13 0 -18 -5 -15 -14 3 -8 0 -17 -8 -19
-14 -6 -23 36 -17 86 3 23 8 27 37 27 18 0 40 -3 49 -6z m-125 -118 c8 -9 9
-16 4 -16 -15 0 -33 47 -32 83 1 29 2 28 8 -10 4 -23 13 -48 20 -57z m198 42
c-2 -13 -4 -5 -4 17 -1 22 1 32 4 23 2 -10 2 -28 0 -40z m-5522 -37 c52 -24
93 -65 119 -121 20 -42 21 -65 24 -327 3 -252 2 -283 -12 -283 -9 -1 -63 -1
-121 -1 -58 0 -109 0 -114 1 -6 0 -11 95 -13 224 -3 210 -4 226 -24 253 -45
59 -132 56 -169 -7 -18 -32 -20 -51 -20 -252 0 -167 -3 -218 -12 -219 -16 -1
-39 -1 -158 0 l-95 1 2 368 3 367 130 0 129 0 -1 -40 c-1 -55 4 -60 33 -26 13
16 48 41 76 55 65 32 162 35 223 7z m660 -9 c22 -11 50 -30 62 -41 l22 -21 3
35 c2 20 6 35 11 35 4 0 57 0 118 0 l110 0 -3 -322 c-3 -304 -4 -326 -24 -369
-32 -69 -77 -113 -146 -144 -55 -25 -78 -29 -181 -33 -124 -5 -205 6 -292 39
-82 31 -81 27 -38 113 28 58 41 75 53 70 124 -56 242 -69 317 -35 46 22 69 56
79 122 l7 43 -49 -35 c-61 -45 -102 -59 -169 -59 -109 0 -204 57 -257 154 -31
57 -33 67 -33 156 1 77 5 105 24 148 28 62 103 134 164 156 58 22 169 16 222
-12z m861 13 c73 -17 177 -61 172 -73 -22 -55 -85 -161 -93 -158 -144 65 -229
81 -257 49 -29 -32 -3 -51 126 -94 65 -22 136 -52 157 -67 97 -69 114 -207 39
-311 -85 -117 -329 -135 -526 -39 -36 18 -68 38 -71 44 -3 9 56 118 84 153 2
3 29 -8 61 -23 133 -66 262 -74 262 -17 0 28 -15 35 -141 75 -130 40 -189 76
-219 135 -35 70 -23 182 26 241 30 35 102 80 147 90 53 13 169 11 233 -5z
m818 -24 c119 -58 184 -170 194 -333 l5 -88 -247 0 c-274 0 -272 1 -216 -64
43 -48 109 -64 182 -42 30 8 64 27 77 40 l24 25 56 -43 c31 -24 64 -52 74 -63
17 -19 16 -21 -29 -62 -72 -68 -142 -94 -254 -99 -180 -8 -305 60 -377 203
-85 166 -25 414 122 505 79 49 124 60 226 57 85 -2 103 -6 163 -36z m807 14
c24 -9 54 -22 66 -31 l23 -14 -49 -48 c-27 -26 -56 -62 -66 -80 -14 -29 -20
-33 -42 -27 -63 15 -82 16 -115 2 -136 -57 -126 -290 15 -328 21 -5 47 -8 57
-5 11 4 28 8 39 11 14 4 25 -5 46 -41 15 -25 46 -64 68 -86 23 -22 34 -38 24
-34 -10 3 -16 2 -12 -4 3 -5 -11 -16 -31 -25 -286 -119 -581 99 -544 402 30
239 286 391 521 308z m2369 11 c0 -2 -8 -10 -17 -17 -16 -13 -17 -12 -4 4 13
16 21 21 21 13z m-1832 -16 c104 -24 206 -100 250 -186 34 -67 47 -154 32
-226 -23 -119 -93 -209 -206 -264 -54 -26 -68 -29 -169 -29 -100 0 -115 3
-172 29 -216 99 -275 366 -123 555 79 98 252 152 388 121z m930 -5 c54 -16
122 -67 122 -91 0 -21 5 -18 65 31 87 70 180 90 283 60 62 -19 105 -54 135
-109 21 -39 22 -54 25 -333 l3 -293 -125 0 -125 0 -3 235 -3 235 -27 26 c-22
22 -36 27 -73 26 -30 0 -54 -7 -67 -19 -43 -37 -48 -71 -48 -293 l0 -210 -124
0 -125 0 -3 235 -3 235 -27 26 c-22 22 -35 27 -75 26 -40 0 -52 -5 -74 -30
-35 -39 -43 -106 -37 -327 l4 -165 -128 0 -128 0 0 365 0 365 128 0 129 0 1
-42 c2 -52 8 -58 28 -29 18 25 86 70 124 82 41 12 93 10 148 -6z m763 -33 c-7
-2 -18 1 -23 6 -8 8 -4 9 13 5 13 -4 18 -8 10 -11z m94 8 c-3 -5 -14 -10 -23
-9 -14 0 -13 2 3 9 27 11 27 11 20 0z m-6205 -350 l0 -340 -130 0 -130 0 0
274 0 274 123 66 c67 36 125 65 130 66 4 0 7 -153 7 -340z"/>
<path d="M7957 5103 c-16 -15 -6 -33 18 -33 18 0 25 5 25 20 0 20 -28 28 -43
13z"/>
<path d="M3102 4820 c-70 -43 -78 -136 -18 -196 42 -42 92 -52 151 -30 35 14
48 26 65 62 27 55 21 101 -19 146 -24 27 -36 32 -87 35 -47 3 -66 0 -92 -17z"/>
<path d="M4667 4822 c-23 -14 -67 -83 -67 -105 0 -4 56 -7 125 -7 115 0 125 1
125 19 0 26 -41 83 -70 98 -35 18 -80 16 -113 -5z"/>
<path d="M6084 4792 c-61 -39 -92 -111 -78 -182 4 -19 25 -51 49 -76 39 -41
45 -44 95 -44 96 0 154 58 154 155 0 91 -55 155 -141 162 -36 3 -56 -1 -79
-15z"/>
</g>
</svg>
